<?xml version="1.0" encoding="utf-8"?>
<!-- Generator: Adobe Illustrator 18.0.0, SVG Export Plug-In . SVG Version: 6.00 Build 0)  -->
<!DOCTYPE svg PUBLIC "-//W3C//DTD SVG 1.1//EN" "http://www.w3.org/Graphics/SVG/1.1/DTD/svg11.dtd">
<svg version="1.1" xmlns="http://www.w3.org/2000/svg" xmlns:xlink="http://www.w3.org/1999/xlink" x="0px" y="0px"
	 viewBox="0 0 173.9 84.2" enable-background="new 0 0 173.9 84.2" xml:space="preserve">
<g id="LOCATION">
</g>
<g id="RULE">
</g>
<g id="WORLDWIDE">
</g>
<g id="HAVAS">
	<g>
		<g>
			<polygon fill="#E23143" points="56.5,23.5 53.2,16.3 48.9,16.3 52.3,23.5 			"/>
			<polygon fill="#E23143" points="41,23.5 42.2,20.1 43.6,23.5 47.6,23.5 44.4,16.3 39.9,16.3 37,23.5 			"/>
			<rect x="27.8" y="16.3" fill="#E23143" width="3.9" height="7.1"/>
			<rect x="16.3" y="16.3" fill="#E23143" width="3.9" height="7.1"/>
			<path fill="#E23143" d="M92,23.5c-2.4-1.4-5.5-1.7-5.5-3.2c0-0.8,0.9-1.3,2.3-1.3c1.3,0,2.7,0.4,5,1.4v-3.1
				c-2-0.9-3.6-1.2-5.3-1.2c-3.6,0-6,1.8-6,4.5c0,1.2,0.4,2.1,1,2.8H92z"/>
			<polygon fill="#E23143" points="62.2,23.5 65.4,16.3 61.2,16.3 58.1,23.5 			"/>
			<polygon fill="#E23143" points="70.9,23.5 72.2,20.1 73.6,23.5 77.6,23.5 74.4,16.3 69.9,16.3 67,23.5 			"/>
			<polygon fill="#E23143" points="66.2,25.4 63.5,32 67.7,32 70.2,25.4 			"/>
			<polygon fill="#E23143" points="74.4,25.4 77.1,32 81.4,32 78.4,25.4 			"/>
			<polygon fill="#E23143" points="53.2,25.4 56.5,32.2 58.2,32.2 61.3,25.4 			"/>
			<path fill="#E23143" d="M86.3,25.4c2,0.8,4.1,1.2,4.1,2.5c0,0.9-0.8,1.4-2.3,1.4c-1.7,0-3.1-0.5-5.4-2v3.4
				c1.6,0.8,2.9,1.5,5.7,1.5c3.5,0,6-1.7,6-4.7c0-0.8-0.2-1.5-0.5-2.1H86.3z"/>
			<rect x="27.8" y="25.4" fill="#E23143" width="3.9" height="6.7"/>
			<rect x="16.3" y="25.4" fill="#E23143" width="3.9" height="6.7"/>
			<polygon fill="#E23143" points="36.3,25.4 33.6,32 37.7,32 40.3,25.4 			"/>
			<polygon fill="#E23143" points="44.4,25.4 47.2,32 51.4,32 48.5,25.4 			"/>
		</g>
	</g>
	<g>
		<path fill="#565454" d="M106,23c3.2,0.8,4.9,1.9,4.9,4.5c0,2.9-2.3,4.6-5.5,4.6c-2.3,0-4.5-0.8-6.4-2.4l1.6-1.9
			c1.5,1.3,2.9,2,4.8,2c1.7,0,2.7-0.8,2.7-1.9c0-1.1-0.6-1.7-3.5-2.4c-3.3-0.8-5.1-1.7-5.1-4.6c0-2.7,2.2-4.5,5.2-4.5
			c2.2,0,4,0.7,5.6,1.9l-1.4,2c-1.4-1-2.8-1.6-4.2-1.6c-1.6,0-2.5,0.8-2.5,1.8C102.4,21.8,103.1,22.3,106,23z"/>
		<path fill="#565454" d="M120.7,31.9H118v-6l-6.1-9.3h3.2l4.3,6.8l4.3-6.8h3.1l-6.1,9.2V31.9z"/>
		<path fill="#565454" d="M134.8,31.9h-5.7V16.6h5.7c4.8,0,8.1,3.3,8.1,7.6C143,28.5,139.6,31.9,134.8,31.9z M134.8,19h-3v10.4h3
			c3.2,0,5.3-2.2,5.3-5.2C140.1,21.2,138,19,134.8,19z"/>
	</g>
</g>
</svg>
